<mxfile host="app.diagrams.net" agent="Mozilla/5.0 (Windows NT 10.0; Win64; x64) AppleWebKit/537.36 (KHTML, like Gecko) Chrome/140.0.0.0 Safari/537.36" version="28.2.5">
  <diagram name="第 1 页" id="3jszKdwtGv2C48wjbcBO">
    <mxGraphModel dx="1042" dy="562" grid="1" gridSize="10" guides="1" tooltips="1" connect="1" arrows="1" fold="1" page="1" pageScale="1" pageWidth="827" pageHeight="1169" math="0" shadow="0">
      <root>
        <mxCell id="0" />
        <mxCell id="1" parent="0" />
        <mxCell id="r3qtLUzdeCTpboVpALhs-1" value="&lt;font style=&quot;font-size: 17px;&quot;&gt;二进制程序&lt;/font&gt;" style="shape=note;whiteSpace=wrap;html=1;backgroundOutline=1;darkOpacity=0.05;" parent="1" vertex="1">
          <mxGeometry x="100" y="230" width="100" height="90" as="geometry" />
        </mxCell>
        <mxCell id="r3qtLUzdeCTpboVpALhs-2" value="IR（Ghidra中间表示）" style="shape=cylinder3;whiteSpace=wrap;html=1;boundedLbl=1;backgroundOutline=1;size=15;" parent="1" vertex="1">
          <mxGeometry x="330" y="235" width="110" height="85" as="geometry" />
        </mxCell>
        <mxCell id="r3qtLUzdeCTpboVpALhs-3" value="" style="endArrow=classic;html=1;rounded=0;exitX=0.996;exitY=0.593;exitDx=0;exitDy=0;exitPerimeter=0;entryX=-0.015;entryY=0.588;entryDx=0;entryDy=0;entryPerimeter=0;" parent="1" source="r3qtLUzdeCTpboVpALhs-1" target="r3qtLUzdeCTpboVpALhs-2" edge="1">
          <mxGeometry width="50" height="50" relative="1" as="geometry">
            <mxPoint x="390" y="310" as="sourcePoint" />
            <mxPoint x="310" y="280" as="targetPoint" />
          </mxGeometry>
        </mxCell>
        <mxCell id="r3qtLUzdeCTpboVpALhs-4" value="Ghidra 无头模式" style="ellipse;shape=cloud;whiteSpace=wrap;html=1;" parent="1" vertex="1">
          <mxGeometry x="200" y="200" width="120" height="80" as="geometry" />
        </mxCell>
        <mxCell id="r3qtLUzdeCTpboVpALhs-7" value="规范的C代码" style="shape=cylinder3;whiteSpace=wrap;html=1;boundedLbl=1;backgroundOutline=1;size=15;" parent="1" vertex="1">
          <mxGeometry x="650" y="237.5" width="100" height="82.5" as="geometry" />
        </mxCell>
        <mxCell id="r3qtLUzdeCTpboVpALhs-8" value="" style="endArrow=classic;html=1;rounded=0;exitX=1;exitY=0.5;exitDx=0;exitDy=0;exitPerimeter=0;entryX=0;entryY=0.5;entryDx=0;entryDy=0;entryPerimeter=0;" parent="1" source="r3qtLUzdeCTpboVpALhs-2" target="r3qtLUzdeCTpboVpALhs-7" edge="1">
          <mxGeometry width="50" height="50" relative="1" as="geometry">
            <mxPoint x="570" y="310" as="sourcePoint" />
            <mxPoint x="620" y="260" as="targetPoint" />
            <Array as="points">
              <mxPoint x="480" y="278" />
              <mxPoint x="480" y="240" />
              <mxPoint x="620" y="240" />
              <mxPoint x="620" y="278" />
            </Array>
          </mxGeometry>
        </mxCell>
        <mxCell id="r3qtLUzdeCTpboVpALhs-9" value="" style="endArrow=none;html=1;rounded=0;" parent="1" edge="1">
          <mxGeometry width="50" height="50" relative="1" as="geometry">
            <mxPoint x="480" y="280" as="sourcePoint" />
            <mxPoint x="620" y="280" as="targetPoint" />
            <Array as="points">
              <mxPoint x="480" y="320" />
              <mxPoint x="620" y="320" />
            </Array>
          </mxGeometry>
        </mxCell>
        <mxCell id="r3qtLUzdeCTpboVpALhs-10" value="脚本预处理" style="ellipse;shape=cloud;whiteSpace=wrap;html=1;" parent="1" vertex="1">
          <mxGeometry x="480" y="190" width="120" height="80" as="geometry" />
        </mxCell>
        <mxCell id="r3qtLUzdeCTpboVpALhs-11" value="LLM预处理&lt;div&gt;（可选）&lt;/div&gt;" style="ellipse;shape=cloud;whiteSpace=wrap;html=1;" parent="1" vertex="1">
          <mxGeometry x="480" y="290" width="120" height="80" as="geometry" />
        </mxCell>
        <mxCell id="rZO53ZpS8E9QGOpbLQiV-1" value="CPG图" style="shape=cube;whiteSpace=wrap;html=1;boundedLbl=1;backgroundOutline=1;darkOpacity=0.05;darkOpacity2=0.1;" vertex="1" parent="1">
          <mxGeometry x="840" y="237.5" width="120" height="80" as="geometry" />
        </mxCell>
        <mxCell id="rZO53ZpS8E9QGOpbLQiV-2" value="" style="endArrow=classic;html=1;rounded=0;exitX=1;exitY=0.5;exitDx=0;exitDy=0;exitPerimeter=0;entryX=-0.003;entryY=0.544;entryDx=0;entryDy=0;entryPerimeter=0;" edge="1" parent="1" source="r3qtLUzdeCTpboVpALhs-7" target="rZO53ZpS8E9QGOpbLQiV-1">
          <mxGeometry width="50" height="50" relative="1" as="geometry">
            <mxPoint x="570" y="160" as="sourcePoint" />
            <mxPoint x="620" y="110" as="targetPoint" />
          </mxGeometry>
        </mxCell>
        <mxCell id="rZO53ZpS8E9QGOpbLQiV-3" value="&lt;font style=&quot;font-size: 15px;&quot;&gt;漏洞报告&lt;/font&gt;&lt;div&gt;&lt;font style=&quot;font-size: 15px;&quot;&gt;与&lt;/font&gt;&lt;/div&gt;&lt;div&gt;&lt;font style=&quot;font-size: 15px;&quot;&gt;危险数据流报告&lt;/font&gt;&lt;/div&gt;" style="shape=note;whiteSpace=wrap;html=1;backgroundOutline=1;darkOpacity=0.05;" vertex="1" parent="1">
          <mxGeometry x="1141" y="232.5" width="129" height="97.5" as="geometry" />
        </mxCell>
        <mxCell id="rZO53ZpS8E9QGOpbLQiV-4" value="" style="endArrow=classic;html=1;rounded=0;exitX=1.017;exitY=0.524;exitDx=0;exitDy=0;exitPerimeter=0;" edge="1" parent="1" source="rZO53ZpS8E9QGOpbLQiV-1">
          <mxGeometry width="50" height="50" relative="1" as="geometry">
            <mxPoint x="790" y="150" as="sourcePoint" />
            <mxPoint x="1140" y="279" as="targetPoint" />
          </mxGeometry>
        </mxCell>
        <mxCell id="rZO53ZpS8E9QGOpbLQiV-5" value="&lt;font style=&quot;font-size: 14px;&quot;&gt;漏洞建模与检索&lt;/font&gt;" style="ellipse;shape=cloud;whiteSpace=wrap;html=1;" vertex="1" parent="1">
          <mxGeometry x="980" y="236.25" width="140" height="85" as="geometry" />
        </mxCell>
      </root>
    </mxGraphModel>
  </diagram>
</mxfile>
